<svg xmlns="http://www.w3.org/2000/svg" xmlns:xlink="http://www.w3.org/1999/xlink" width="378" zoomAndPan="magnify" viewBox="0 0 283.5 283.500005" height="378" preserveAspectRatio="xMidYMid meet" version="1.0"><defs><g/><clipPath id="96166dae28"><path d="M 59 28.296875 L 224 28.296875 L 224 193.007812 L 59 193.007812 Z M 59 28.296875 " clip-rule="nonzero"/></clipPath></defs><path fill="#013d43" d="M 142.253906 155.222656 L 140.707031 155.222656 C 125.140625 155.222656 112.421875 142.507812 112.421875 126.9375 L 112.421875 109.941406 C 112.421875 102.929688 118.367188 96.039062 125.496094 97.34375 C 151.402344 101.742188 154.257812 88.195312 157.703125 92.949219 C 164 101.503906 170.417969 99.007812 170.417969 102.929688 L 170.417969 127.058594 C 170.417969 142.507812 157.820312 155.222656 142.253906 155.222656 Z M 123.832031 101.863281 C 120.027344 101.863281 117.175781 106.257812 117.175781 109.941406 L 117.175781 126.9375 C 117.175781 139.890625 127.753906 150.46875 140.707031 150.46875 L 142.253906 150.46875 C 155.207031 150.46875 165.664062 139.890625 165.664062 126.9375 L 165.664062 104.59375 C 161.507812 103.050781 158.058594 100.671875 155.324219 97.582031 C 144.867188 104.238281 133.933594 103.644531 124.664062 101.980469 C 124.425781 101.980469 124.070312 101.863281 123.832031 101.863281 Z M 123.832031 101.863281 " fill-opacity="1" fill-rule="evenodd"/><path fill="#013d43" d="M 176.363281 115.410156 C 175.054688 115.410156 173.984375 114.339844 173.984375 113.03125 L 173.984375 94.851562 C 173.746094 85.699219 166.617188 83.085938 160.199219 78.6875 C 153.78125 74.289062 149.027344 70.960938 141.660156 70.960938 C 123.59375 70.960938 108.976562 85.578125 108.976562 103.644531 L 108.976562 113.03125 C 108.976562 116.125 104.222656 116.125 104.222656 113.03125 L 104.222656 103.644531 C 104.222656 82.847656 120.859375 66.207031 142.371094 66.207031 C 153.304688 66.207031 160.792969 73.933594 169.230469 78.925781 C 174.933594 82.132812 178.261719 87.839844 178.738281 94.730469 L 178.738281 113.03125 C 178.738281 114.339844 177.667969 115.410156 176.363281 115.410156 Z M 176.363281 115.410156 " fill-opacity="1" fill-rule="evenodd"/><path fill="#013d43" d="M 172.914062 129.078125 C 164 129.078125 165.664062 130.980469 165.664062 111.488281 C 165.664062 108.398438 169.707031 109.109375 172.914062 109.109375 C 176.835938 109.109375 180.046875 112.320312 180.046875 116.359375 L 180.046875 121.828125 C 180.046875 125.867188 176.835938 129.078125 172.914062 129.078125 Z M 170.417969 124.324219 C 176.003906 124.324219 175.292969 124.085938 175.292969 116.359375 C 175.292969 113.507812 172.203125 113.863281 170.417969 113.863281 Z M 170.417969 124.324219 " fill-opacity="1" fill-rule="evenodd"/><path fill="#013d43" d="M 114.800781 129.078125 L 110.046875 129.078125 C 106.125 129.078125 102.914062 125.867188 102.914062 121.945312 L 102.914062 116.359375 C 102.914062 112.320312 106.125 109.109375 110.046875 109.109375 C 118.960938 109.109375 117.175781 107.210938 117.175781 126.699219 C 117.175781 128.007812 116.105469 129.078125 114.800781 129.078125 Z M 110.046875 113.863281 C 106.835938 113.863281 107.667969 118.261719 107.667969 121.828125 C 107.667969 124.679688 110.757812 124.324219 112.421875 124.324219 L 112.421875 113.863281 Z M 110.046875 113.863281 " fill-opacity="1" fill-rule="evenodd"/><g clip-path="url(#96166dae28)"><path fill="#013d43" d="M 200.011719 193.132812 L 173.390625 193.132812 C 170.300781 193.132812 170.300781 188.382812 173.390625 188.382812 L 200.011719 188.382812 C 210.589844 188.382812 219.144531 179.824219 219.144531 169.246094 L 219.144531 142.625 C 219.144531 139.535156 223.898438 139.535156 223.898438 142.625 L 223.898438 169.246094 C 223.898438 182.4375 213.203125 193.132812 200.011719 193.132812 Z M 109.453125 193.132812 L 82.949219 193.132812 C 69.757812 193.132812 59.0625 182.4375 59.0625 169.246094 L 59.0625 142.625 C 59.0625 139.535156 63.816406 139.535156 63.816406 142.625 L 63.816406 169.246094 C 63.816406 179.824219 72.371094 188.382812 82.949219 188.382812 L 109.453125 188.382812 C 112.660156 188.382812 112.660156 193.132812 109.453125 193.132812 Z M 221.523438 81.0625 C 220.214844 81.0625 219.144531 80.113281 219.144531 78.6875 L 219.144531 52.183594 C 219.144531 41.605469 210.589844 33.050781 200.011719 33.050781 L 173.390625 33.050781 C 170.300781 33.050781 170.300781 28.296875 173.390625 28.296875 L 200.011719 28.296875 C 213.203125 28.296875 223.898438 38.992188 223.898438 52.183594 L 223.898438 78.6875 C 223.898438 80.113281 222.832031 81.0625 221.523438 81.0625 Z M 61.4375 81.0625 C 60.132812 81.0625 59.0625 80.113281 59.0625 78.6875 L 59.0625 52.183594 C 59.0625 38.992188 69.757812 28.296875 82.949219 28.296875 L 109.453125 28.296875 C 112.660156 28.296875 112.660156 33.050781 109.453125 33.050781 L 82.949219 33.050781 C 72.371094 33.050781 63.816406 41.605469 63.816406 52.183594 L 63.816406 78.6875 C 63.816406 80.113281 62.746094 81.0625 61.4375 81.0625 Z M 61.4375 81.0625 " fill-opacity="1" fill-rule="evenodd"/></g><path fill="#013d43" d="M 196.089844 169.839844 L 86.871094 169.839844 C 85.5625 169.839844 84.496094 168.773438 84.496094 167.464844 L 84.496094 53.847656 C 84.496094 52.539062 85.5625 51.472656 86.871094 51.472656 L 196.089844 51.472656 C 197.398438 51.472656 198.46875 52.539062 198.46875 53.847656 L 198.46875 167.464844 C 198.46875 168.773438 197.398438 169.839844 196.089844 169.839844 Z M 89.25 165.085938 L 193.714844 165.085938 L 193.714844 56.226562 L 89.25 56.226562 Z M 89.25 165.085938 " fill-opacity="1" fill-rule="evenodd"/><path fill="#013d43" d="M 240.417969 113.03125 L 42.421875 113.03125 C 39.332031 113.03125 39.332031 108.28125 42.421875 108.28125 L 240.417969 108.28125 C 243.628906 108.28125 243.628906 113.03125 240.417969 113.03125 Z M 240.417969 113.03125 " fill-opacity="1" fill-rule="evenodd"/><g fill="#013d43" fill-opacity="1"><g transform="translate(50.557379, 230.475165)"><g><path d="M 11.03125 0.359375 C 8.769531 0.359375 6.945312 0.117188 5.5625 -0.359375 C 4.1875 -0.847656 3.140625 -1.515625 2.421875 -2.359375 C 1.703125 -3.210938 1.21875 -4.195312 0.96875 -5.3125 L 8.40625 -5.3125 C 8.945312 -4.519531 9.820312 -4.125 11.03125 -4.125 C 12.226562 -4.125 13.101562 -4.519531 13.65625 -5.3125 C 13.707031 -5.382812 13.734375 -5.453125 13.734375 -5.515625 C 13.734375 -5.722656 13.453125 -5.878906 12.890625 -5.984375 C 12.335938 -6.085938 11.507812 -6.164062 10.40625 -6.21875 C 9.019531 -6.28125 7.5625 -6.429688 6.03125 -6.671875 C 2.632812 -7.191406 0.9375 -8.5625 0.9375 -10.78125 C 0.9375 -10.957031 0.945312 -11.15625 0.96875 -11.375 C 1.21875 -12.476562 1.703125 -13.453125 2.421875 -14.296875 C 3.140625 -15.148438 4.1875 -15.816406 5.5625 -16.296875 C 6.945312 -16.785156 8.769531 -17.03125 11.03125 -17.03125 C 13.289062 -17.03125 15.109375 -16.785156 16.484375 -16.296875 C 17.867188 -15.816406 18.921875 -15.148438 19.640625 -14.296875 C 20.359375 -13.453125 20.84375 -12.476562 21.09375 -11.375 L 13.65625 -11.375 C 13.101562 -12.15625 12.226562 -12.546875 11.03125 -12.546875 C 9.820312 -12.546875 8.945312 -12.15625 8.40625 -11.375 C 8.363281 -11.3125 8.34375 -11.25 8.34375 -11.1875 C 8.34375 -11 8.609375 -10.859375 9.140625 -10.765625 C 9.671875 -10.679688 10.453125 -10.609375 11.484375 -10.546875 C 12.523438 -10.484375 13.628906 -10.382812 14.796875 -10.25 C 15.972656 -10.113281 17.066406 -9.867188 18.078125 -9.515625 C 19.097656 -9.171875 19.898438 -8.664062 20.484375 -8 C 20.929688 -7.476562 21.15625 -6.816406 21.15625 -6.015625 C 21.15625 -5.785156 21.132812 -5.550781 21.09375 -5.3125 C 20.84375 -4.195312 20.359375 -3.210938 19.640625 -2.359375 C 18.921875 -1.515625 17.867188 -0.847656 16.484375 -0.359375 C 15.109375 0.117188 13.289062 0.359375 11.03125 0.359375 Z M 11.03125 0.359375 "/></g></g><g transform="translate(72.634244, 230.475165)"><g><path d="M 12.625 0.359375 C 8.5 0.359375 5.460938 -0.488281 3.515625 -2.1875 C 1.796875 -3.6875 0.9375 -5.734375 0.9375 -8.328125 C 0.9375 -10.929688 1.796875 -12.984375 3.515625 -14.484375 C 5.460938 -16.171875 8.5 -17.015625 12.625 -17.015625 C 15.039062 -17.015625 17.039062 -16.738281 18.625 -16.1875 C 20.207031 -15.632812 21.4375 -14.875 22.3125 -13.90625 C 23.1875 -12.945312 23.769531 -11.847656 24.0625 -10.609375 L 16.703125 -10.609375 C 15.960938 -11.898438 14.601562 -12.546875 12.625 -12.546875 C 10.9375 -12.546875 9.691406 -12.0625 8.890625 -11.09375 C 8.253906 -10.3125 7.9375 -9.390625 7.9375 -8.328125 C 7.9375 -7.265625 8.253906 -6.347656 8.890625 -5.578125 C 9.691406 -4.597656 10.9375 -4.109375 12.625 -4.109375 C 14.601562 -4.109375 15.960938 -4.757812 16.703125 -6.0625 L 24.0625 -6.0625 C 23.769531 -4.8125 23.1875 -3.703125 22.3125 -2.734375 C 21.4375 -1.773438 20.207031 -1.019531 18.625 -0.46875 C 17.039062 0.0820312 15.039062 0.359375 12.625 0.359375 Z M 12.625 0.359375 "/></g></g><g transform="translate(97.619022, 230.475165)"><g><path d="M 28.046875 0 L 20.9375 0 L 19.375 -2.734375 L 8.84375 -2.734375 L 7.265625 0 L 0.171875 0 L 10.859375 -16.6875 L 17.359375 -16.6875 Z M 17.015625 -6.859375 L 14.109375 -11.921875 L 11.203125 -6.859375 Z M 17.015625 -6.859375 "/></g></g><g transform="translate(125.825766, 230.475165)"><g><path d="M 26.625 0 L 18.296875 0 L 8.859375 -11.296875 L 8.859375 0 L 1.859375 0 L 1.859375 -16.703125 L 10.1875 -16.703125 L 19.625 -5.453125 L 19.625 -16.703125 L 26.625 -16.703125 Z M 26.625 0 "/></g></g><g transform="translate(154.311669, 230.475165)"><g><path d="M 26.625 0 L 18.296875 0 L 8.859375 -11.296875 L 8.859375 0 L 1.859375 0 L 1.859375 -16.703125 L 10.1875 -16.703125 L 19.625 -5.453125 L 19.625 -16.703125 L 26.625 -16.703125 Z M 26.625 0 "/></g></g><g transform="translate(182.797572, 230.475165)"><g><path d="M 21.96875 0 L 1.859375 0 L 1.859375 -16.703125 L 21.046875 -16.703125 L 21.046875 -12.5625 L 8.859375 -12.5625 L 8.859375 -9.953125 L 19.15625 -9.953125 L 19.15625 -6.734375 L 8.859375 -6.734375 L 8.859375 -4.125 L 21.96875 -4.125 Z M 21.96875 0 "/></g></g><g transform="translate(205.688653, 230.475165)"><g><path d="M 13.03125 0 L 1.859375 0 L 1.859375 -16.703125 L 13.03125 -16.703125 C 17.601562 -16.703125 20.890625 -16.0625 22.890625 -14.78125 C 24.503906 -13.75 25.421875 -12.34375 25.640625 -10.5625 C 25.742188 -9.789062 25.796875 -9.050781 25.796875 -8.34375 C 25.796875 -7.632812 25.742188 -6.894531 25.640625 -6.125 C 25.546875 -5.351562 25.289062 -4.601562 24.875 -3.875 C 24.457031 -3.15625 23.789062 -2.503906 22.875 -1.921875 C 21.96875 -1.335938 20.71875 -0.867188 19.125 -0.515625 C 17.539062 -0.171875 15.507812 0 13.03125 0 Z M 12.375 -4.125 C 15.925781 -4.125 17.9375 -5.023438 18.40625 -6.828125 C 18.53125 -7.328125 18.59375 -7.832031 18.59375 -8.34375 C 18.59375 -8.851562 18.523438 -9.359375 18.390625 -9.859375 C 18.265625 -10.359375 17.992188 -10.8125 17.578125 -11.21875 C 17.171875 -11.625 16.550781 -11.945312 15.71875 -12.1875 C 14.882812 -12.4375 13.769531 -12.5625 12.375 -12.5625 L 8.859375 -12.5625 L 8.859375 -4.125 Z M 12.375 -4.125 "/></g></g></g></svg>