<svg width="65" height="60" viewBox="0 0 65 60" fill="none" xmlns="http://www.w3.org/2000/svg">
<g filter="url(#filter0_d_96_400)">
<path d="M5.45733 29.0514C3.5479 27.0565 3.64225 23.9181 5.66806 22.0415L25.7943 3.39783C27.8202 1.52125 31.0103 1.61716 32.9197 3.61203L51.6832 23.2153C53.5927 25.2101 53.4983 28.3486 51.4725 30.2252L31.3462 48.8688C29.3204 50.7454 26.1303 50.6495 24.2209 48.6546L5.45733 29.0514Z" fill="#013D43"/>
<path d="M13.2177 30.1421C11.3083 28.1472 11.4026 25.0088 13.4284 23.1322L33.5547 4.48853C35.5805 2.61195 38.7707 2.70785 40.6801 4.70273L59.4436 24.306C61.3531 26.3008 61.2587 29.4393 59.2329 31.3159L39.1066 49.9595C37.0808 51.8361 33.8907 51.7402 31.9812 49.7453L13.2177 30.1421Z" fill="white"/>
<path d="M24.0625 23.9399C23.8457 23.7231 23.5615 23.6147 23.21 23.6147C22.7119 23.6147 22.2725 23.7539 21.8916 24.0322C21.4873 24.3223 21.2852 24.6738 21.2852 25.0869C21.2852 25.4092 21.436 25.7139 21.7378 26.001C21.6265 26.1533 21.4521 26.2822 21.2148 26.3877C21.1504 26.417 21.0845 26.4316 21.0171 26.4316C20.9497 26.4316 20.8721 26.4111 20.7842 26.3701C20.6992 26.3291 20.623 26.2705 20.5557 26.1943C20.4033 26.0215 20.3271 25.8149 20.3271 25.5747C20.3271 25.3345 20.3696 25.1118 20.4546 24.9067C20.5396 24.7017 20.6553 24.5112 20.8018 24.3354C20.9482 24.1567 21.1182 23.9956 21.3115 23.8521C21.5078 23.7085 21.7158 23.584 21.9355 23.4785C22.3955 23.2646 22.8438 23.1577 23.2803 23.1577C23.7197 23.1577 24.0859 23.2368 24.3789 23.395C25.0586 23.7612 25.3984 24.5874 25.3984 25.8735C25.3984 26.2632 25.3677 26.6968 25.3062 27.1743C25.8042 26.6089 26.7695 25.7373 28.2021 24.5596C28.3984 24.4014 28.5815 24.249 28.7515 24.1025C28.9097 23.7012 29.04 23.4375 29.1426 23.3115C29.3096 23.1035 29.4531 22.9995 29.5732 22.9995C29.6934 22.9995 29.7754 23.0303 29.8193 23.0918C29.8633 23.1504 29.8853 23.2075 29.8853 23.2632C29.8853 23.3159 29.8691 23.3716 29.8369 23.4302C29.8076 23.4888 29.7695 23.5518 29.7227 23.6191C29.626 23.7539 29.5205 23.8843 29.4062 24.0103C29.1162 25.5835 28.9712 27.1699 28.9712 28.7695C28.9712 29.3408 28.7354 29.7305 28.2637 29.9385C28.0498 30.0322 27.8184 30.0791 27.5693 30.0791C27.1943 30.0791 26.8721 29.9897 26.6025 29.811C26.4971 29.7407 26.415 29.6602 26.3564 29.5693C26.6758 29.3027 27.1431 28.4033 27.7583 26.8711C28.0044 26.2559 28.2314 25.6289 28.4395 24.9902L27.5737 25.856C26.4751 26.9546 25.6797 27.8394 25.1875 28.5103C25.1436 28.856 25.0205 29.2207 24.8184 29.6045C24.6924 29.8359 24.5884 29.9897 24.5063 30.0659C24.4272 30.1421 24.3672 30.1802 24.3262 30.1802C24.0508 30.1802 23.7593 30.0981 23.4517 29.9341C23.144 29.77 22.9902 29.6162 22.9902 29.4727C22.9902 29.2793 23.1719 28.9731 23.5352 28.5542C23.6348 28.437 23.7358 28.3271 23.8384 28.2246C24.2896 27.2373 24.5151 26.2998 24.5151 25.4121C24.5151 25.3066 24.5063 25.1499 24.4888 24.9419C24.4741 24.7339 24.4126 24.5156 24.3042 24.2871C23.894 25.6348 23.3066 26.8828 22.542 28.0312C22.0029 28.8369 21.4507 29.4067 20.8853 29.7407C20.5923 29.9136 20.2993 30 20.0063 30C19.7134 30 19.4746 29.9546 19.29 29.8638C18.9062 29.6733 18.7144 29.3525 18.7144 28.9014C18.7144 28.6084 18.7891 28.3403 18.9385 28.0972C19.0205 27.9653 19.1128 27.8687 19.2153 27.8071C19.6108 28.0884 20.0093 28.229 20.4106 28.229C21.0024 28.229 21.5898 27.9053 22.1729 27.2578C22.6855 26.6865 23.1924 25.856 23.6934 24.7661C23.8281 24.4731 23.9512 24.1978 24.0625 23.9399ZM31.4937 28.2729C31.6636 28.5776 32.0488 28.73 32.6494 28.73C33.0244 28.73 33.3774 28.6392 33.7085 28.4575C34.0425 28.2729 34.3281 28.002 34.5654 27.6445C34.6973 27.6357 34.7632 27.6899 34.7632 27.8071C34.7632 27.939 34.6841 28.1294 34.5259 28.3784C34.3706 28.6245 34.2241 28.8237 34.0864 28.9761C33.9517 29.1284 33.7993 29.2705 33.6294 29.4023C33.4624 29.5312 33.2822 29.6426 33.0889 29.7363C32.6699 29.9414 32.229 30.0439 31.7661 30.0439C30.8345 30.0439 30.2295 29.7861 29.9512 29.2705C29.8516 29.083 29.8018 28.8691 29.8018 28.6289C29.8018 28.3857 29.8428 28.1631 29.9248 27.9609C30.0098 27.7588 30.1255 27.5669 30.272 27.3853C30.4185 27.2007 30.5928 27.0308 30.7949 26.8755C30.9971 26.7202 31.2168 26.5869 31.4541 26.4756C31.958 26.2324 32.4722 26.1108 32.9966 26.1108C33.3745 26.1108 33.6338 26.2295 33.7744 26.4668C33.8242 26.5488 33.8491 26.6587 33.8491 26.7964C33.8491 26.9312 33.814 27.0645 33.7437 27.1963C33.6763 27.3281 33.584 27.4482 33.4668 27.5566C33.3496 27.6621 33.2134 27.7559 33.0581 27.8379C32.9028 27.917 32.7373 27.9858 32.5615 28.0444C32.251 28.1499 31.895 28.2261 31.4937 28.2729ZM31.4321 27.8643C31.8071 27.8203 32.1294 27.7163 32.3989 27.5522C32.6831 27.3765 32.8252 27.1714 32.8252 26.937C32.8252 26.6997 32.7168 26.5811 32.5 26.5811C32.2188 26.5811 31.9741 26.7158 31.7661 26.9854C31.5669 27.2432 31.4556 27.5361 31.4321 27.8643ZM38.481 28.6069C38.6978 28.6069 38.9395 28.5088 39.2061 28.3125C39.4434 28.1338 39.6514 27.9111 39.8301 27.6445C39.9648 27.6328 40.0293 27.6899 40.0234 27.8159C40.0205 27.9155 39.959 28.0664 39.8389 28.2686C39.7217 28.4707 39.606 28.6465 39.4917 28.7959C39.3774 28.9453 39.25 29.0918 39.1094 29.2354C38.9688 29.3789 38.8193 29.5078 38.6611 29.6221C38.3066 29.874 37.9609 30 37.624 30C37.1934 30 36.9062 29.8711 36.7627 29.6133C36.7129 29.5254 36.6895 29.4199 36.6924 29.2969C36.4434 29.5986 36.0889 29.8096 35.6289 29.9297C35.4736 29.9707 35.3066 29.9912 35.1279 29.9912C34.9492 29.9912 34.7852 29.9634 34.6357 29.9077C34.4893 29.8491 34.3633 29.7686 34.2578 29.666C34.041 29.4521 33.9326 29.1665 33.9326 28.8091C33.9326 28.4048 34.104 27.9902 34.4468 27.5654C34.7837 27.1436 35.2158 26.7979 35.7432 26.5283C36.3057 26.2441 36.8799 26.1021 37.4658 26.1021C37.7266 26.1021 37.8423 26.2178 37.813 26.4492C37.1392 26.4492 36.5518 26.6309 36.0508 26.9941C35.8311 27.1553 35.6582 27.3325 35.5322 27.5259C35.4092 27.7192 35.3477 27.9067 35.3477 28.0884C35.3477 28.4282 35.4912 28.5981 35.7783 28.5981C36.1914 28.5981 36.6074 28.3403 37.0264 27.8247C37.1729 27.6431 37.3428 27.3896 37.5361 27.0645C37.7324 26.7363 37.8921 26.4697 38.0151 26.2646C38.1411 26.0566 38.2686 25.8457 38.3975 25.6318C38.5293 25.415 38.6553 25.2085 38.7754 25.0122C39.0713 24.5288 39.2544 24.2388 39.3247 24.1421C39.4302 23.9956 39.5547 23.9224 39.6982 23.9224C39.8652 23.9224 39.9868 23.9824 40.063 24.1025C39.7407 24.6094 39.4404 25.147 39.1621 25.7153C38.8838 26.2837 38.6904 26.6982 38.582 26.959C38.3359 27.5508 38.2129 27.9741 38.2129 28.229C38.2129 28.481 38.3022 28.6069 38.481 28.6069ZM40.9858 25.5879C40.7192 25.8721 40.5068 26.0142 40.3486 26.0142C40.1729 26.0142 40.0161 25.9014 39.8784 25.6758C39.7437 25.4531 39.6763 25.2173 39.6763 24.9683C39.6763 24.7192 39.7349 24.5024 39.8521 24.3179C39.9722 24.1304 40.1304 23.9648 40.3267 23.8213C40.5229 23.6777 40.7471 23.5532 40.999 23.4478C41.2539 23.3423 41.5176 23.2559 41.79 23.1885C42.3291 23.0508 42.7817 22.9819 43.1479 22.9819C43.5171 22.9819 43.8262 22.998 44.0752 23.0303C44.3242 23.0596 44.5645 23.1094 44.7959 23.1797C45.0273 23.25 45.2456 23.3408 45.4507 23.4521C45.6558 23.5605 45.8359 23.6924 45.9912 23.8477C46.3193 24.1846 46.4834 24.605 46.4834 25.1089C46.4834 25.6304 46.3193 26.165 45.9912 26.7129C45.6748 27.2432 45.2646 27.6826 44.7607 28.0312C44.2246 28.3975 43.6841 28.5806 43.1392 28.5806C42.8726 28.5806 42.6382 28.5146 42.436 28.3828C42.3394 28.3154 42.2896 28.2378 42.2866 28.1499C42.2837 28.0591 42.2852 27.9771 42.291 27.9038C42.3145 27.6021 42.3804 27.2476 42.4888 26.8403C42.7026 26.9282 42.9312 26.9722 43.1743 26.9722C43.4175 26.9722 43.6196 26.9473 43.7808 26.8975C43.9419 26.8447 44.103 26.7715 44.2642 26.6777C44.4282 26.584 44.585 26.4727 44.7344 26.3438C44.8867 26.2148 45.0215 26.0713 45.1387 25.9131C45.3936 25.5674 45.521 25.2393 45.521 24.9287C45.521 24.6182 45.4492 24.3735 45.3057 24.1948C45.165 24.0132 44.9834 23.8682 44.7607 23.7598C44.3418 23.5518 43.8247 23.4478 43.2095 23.4478C42.6792 23.4478 42.1372 23.5547 41.5835 23.7686C41.1968 23.9209 40.9185 24.1143 40.7485 24.3486C40.6606 24.4717 40.6167 24.6064 40.6167 24.7529C40.6167 25.084 40.7397 25.3623 40.9858 25.5879ZM39.3423 29.71C39.4917 29.5518 39.6675 29.2778 39.8696 28.8882C40.0718 28.4956 40.2446 28.1558 40.3882 27.8687C40.5317 27.5815 40.6812 27.2871 40.8364 26.9854C40.9946 26.6836 41.1558 26.3848 41.3198 26.0889C41.4868 25.79 41.6553 25.5088 41.8252 25.2451C42.2031 24.665 42.5488 24.2578 42.8623 24.0234C42.8975 23.9941 42.9355 23.9795 42.9766 23.9795C43.0205 23.9795 43.0645 23.9868 43.1084 24.0015C43.2051 24.0337 43.29 24.0835 43.3633 24.1509C42.9971 24.4438 42.6191 25.2129 42.2295 26.458C42.1182 26.8066 42.0098 27.1553 41.9043 27.5039C41.7988 27.8496 41.6963 28.1836 41.5967 28.5059C41.5 28.8281 41.4033 29.1123 41.3066 29.3584C41.0986 29.9004 40.9126 30.1714 40.7485 30.1714C40.23 30.1714 39.8242 30.0659 39.5312 29.855C39.458 29.8022 39.395 29.7539 39.3423 29.71ZM49.52 27.2183C50.1089 27.2007 50.5718 27.1655 50.9087 27.1128C50.9204 27.1626 50.9263 27.2168 50.9263 27.2754C50.9263 27.4717 50.853 27.5991 50.7065 27.6577C50.4399 27.7573 49.9595 27.8379 49.2651 27.8994C48.9692 28.6465 48.748 29.1416 48.6016 29.3848C48.5312 29.499 48.3862 29.5562 48.1665 29.5562C48.0815 29.5562 48.0244 29.5459 47.9951 29.5254C48.0215 29.4346 48.0537 29.3306 48.0918 29.2134C48.1299 29.0933 48.1694 28.9658 48.2104 28.8311C48.2544 28.6963 48.2998 28.5557 48.3467 28.4092C48.3936 28.2598 48.4404 28.1074 48.4873 27.9521C48.2529 27.9609 48.0303 27.9653 47.8193 27.9653C47.2832 27.9653 47.0151 27.7954 47.0151 27.4556C47.0151 27.353 47.0342 27.2358 47.0723 27.104C47.3418 27.186 47.8853 27.2271 48.7026 27.2271C48.9604 26.3276 49.0791 25.7666 49.0586 25.5439C49.082 25.5439 49.123 25.5439 49.1816 25.5439C49.2402 25.5439 49.312 25.5498 49.397 25.5615C49.4819 25.5703 49.5566 25.5923 49.6211 25.6274C49.7559 25.6978 49.8232 25.8354 49.8232 26.0405C49.8232 26.2456 49.7222 26.6382 49.52 27.2183Z" fill="#049CAA"/>
<rect x="27" y="32.014" width="17.1519" height="1.2186" rx="0.609299" fill="#049CAA"/>
</g>
<defs>
<filter id="filter0_d_96_400" x="0.0847626" y="2.05078" width="64.7314" height="57.2557" filterUnits="userSpaceOnUse" color-interpolation-filters="sRGB">
<feFlood flood-opacity="0" result="BackgroundImageFix"/>
<feColorMatrix in="SourceAlpha" type="matrix" values="0 0 0 0 0 0 0 0 0 0 0 0 0 0 0 0 0 0 127 0" result="hardAlpha"/>
<feOffset dy="4"/>
<feGaussianBlur stdDeviation="2"/>
<feComposite in2="hardAlpha" operator="out"/>
<feColorMatrix type="matrix" values="0 0 0 0 0 0 0 0 0 0 0 0 0 0 0 0 0 0 0.25 0"/>
<feBlend mode="normal" in2="BackgroundImageFix" result="effect1_dropShadow_96_400"/>
<feBlend mode="normal" in="SourceGraphic" in2="effect1_dropShadow_96_400" result="shape"/>
</filter>
</defs>
</svg>
