<svg xmlns="http://www.w3.org/2000/svg" xmlns:xlink="http://www.w3.org/1999/xlink" width="378" zoomAndPan="magnify" viewBox="0 0 283.5 283.500005" height="378" preserveAspectRatio="xMidYMid meet" version="1.0"><defs><clipPath id="34c2997eb9"><path d="M 79 79.710938 L 204 79.710938 L 204 203.242188 L 79 203.242188 Z M 79 79.710938 " clip-rule="nonzero"/></clipPath></defs><path fill="#ffffff" d="M 0 0 L 283 0 L 283 283 L 0 283 Z M 0 0 " fill-opacity="1" fill-rule="nonzero"/><path fill="#ffffff" d="M 0 0 L 283 0 L 283 283 L 0 283 Z M 0 0 " fill-opacity="1" fill-rule="nonzero"/><path fill="#013d43" d="M 142.0625 174.839844 L 140.902344 174.839844 C 129.234375 174.839844 119.703125 165.308594 119.703125 153.640625 L 119.703125 140.902344 C 119.703125 135.648438 124.15625 130.480469 129.503906 131.460938 C 148.921875 134.757812 151.058594 124.601562 153.640625 128.164062 C 158.363281 134.578125 163.171875 132.707031 163.171875 135.648438 L 163.171875 153.730469 C 163.171875 165.308594 153.730469 174.839844 142.0625 174.839844 Z M 128.253906 134.847656 C 125.40625 134.847656 123.265625 138.140625 123.265625 140.902344 L 123.265625 153.640625 C 123.265625 163.347656 131.195312 171.277344 140.902344 171.277344 L 142.0625 171.277344 C 151.769531 171.277344 159.609375 163.347656 159.609375 153.640625 L 159.609375 136.894531 C 156.492188 135.738281 153.910156 133.957031 151.859375 131.640625 C 144.019531 136.628906 135.828125 136.183594 128.878906 134.933594 C 128.699219 134.933594 128.433594 134.847656 128.253906 134.847656 Z M 128.253906 134.847656 " fill-opacity="1" fill-rule="evenodd"/><path fill="#013d43" d="M 167.625 145 C 166.644531 145 165.84375 144.199219 165.84375 143.21875 L 165.84375 129.589844 C 165.664062 122.734375 160.320312 120.773438 155.511719 117.476562 C 150.703125 114.179688 147.140625 111.6875 141.617188 111.6875 C 128.078125 111.6875 117.121094 122.644531 117.121094 136.183594 L 117.121094 143.21875 C 117.121094 145.535156 113.558594 145.535156 113.558594 143.21875 L 113.558594 136.183594 C 113.558594 120.59375 126.027344 108.125 142.152344 108.125 C 150.34375 108.125 155.957031 113.914062 162.28125 117.65625 C 166.554688 120.058594 169.050781 124.335938 169.40625 129.503906 L 169.40625 143.21875 C 169.40625 144.199219 168.605469 145 167.625 145 Z M 167.625 145 " fill-opacity="1" fill-rule="evenodd"/><path fill="#013d43" d="M 165.042969 155.242188 C 158.363281 155.242188 159.609375 156.667969 159.609375 142.0625 C 159.609375 139.746094 162.636719 140.28125 165.042969 140.28125 C 167.980469 140.28125 170.386719 142.683594 170.386719 145.714844 L 170.386719 149.808594 C 170.386719 152.839844 167.980469 155.242188 165.042969 155.242188 Z M 163.171875 151.679688 C 167.359375 151.679688 166.824219 151.503906 166.824219 145.714844 C 166.824219 143.574219 164.507812 143.84375 163.171875 143.84375 Z M 163.171875 151.679688 " fill-opacity="1" fill-rule="evenodd"/><path fill="#013d43" d="M 121.484375 155.242188 L 117.921875 155.242188 C 114.984375 155.242188 112.578125 152.839844 112.578125 149.898438 L 112.578125 145.714844 C 112.578125 142.683594 114.984375 140.28125 117.921875 140.28125 C 124.601562 140.28125 123.265625 138.855469 123.265625 153.460938 C 123.265625 154.441406 122.464844 155.242188 121.484375 155.242188 Z M 117.921875 143.84375 C 115.519531 143.84375 116.140625 147.136719 116.140625 149.808594 C 116.140625 151.949219 118.457031 151.679688 119.703125 151.679688 L 119.703125 143.84375 Z M 117.921875 143.84375 " fill-opacity="1" fill-rule="evenodd"/><g clip-path="url(#34c2997eb9)"><path fill="#013d43" d="M 185.351562 203.253906 L 165.398438 203.253906 C 163.082031 203.253906 163.082031 199.691406 165.398438 199.691406 L 185.351562 199.691406 C 193.277344 199.691406 199.691406 193.277344 199.691406 185.351562 L 199.691406 165.398438 C 199.691406 163.082031 203.253906 163.082031 203.253906 165.398438 L 203.253906 185.351562 C 203.253906 195.238281 195.238281 203.253906 185.351562 203.253906 Z M 117.476562 203.253906 L 97.613281 203.253906 C 87.726562 203.253906 79.710938 195.238281 79.710938 185.351562 L 79.710938 165.398438 C 79.710938 163.082031 83.273438 163.082031 83.273438 165.398438 L 83.273438 185.351562 C 83.273438 193.277344 89.6875 199.691406 97.613281 199.691406 L 117.476562 199.691406 C 119.882812 199.691406 119.882812 203.253906 117.476562 203.253906 Z M 201.472656 119.257812 C 200.492188 119.257812 199.691406 118.546875 199.691406 117.476562 L 199.691406 97.613281 C 199.691406 89.6875 193.277344 83.273438 185.351562 83.273438 L 165.398438 83.273438 C 163.082031 83.273438 163.082031 79.710938 165.398438 79.710938 L 185.351562 79.710938 C 195.238281 79.710938 203.253906 87.726562 203.253906 97.613281 L 203.253906 117.476562 C 203.253906 118.546875 202.453125 119.257812 201.472656 119.257812 Z M 81.492188 119.257812 C 80.511719 119.257812 79.710938 118.546875 79.710938 117.476562 L 79.710938 97.613281 C 79.710938 87.726562 87.726562 79.710938 97.613281 79.710938 L 117.476562 79.710938 C 119.882812 79.710938 119.882812 83.273438 117.476562 83.273438 L 97.613281 83.273438 C 89.6875 83.273438 83.273438 89.6875 83.273438 97.613281 L 83.273438 117.476562 C 83.273438 118.546875 82.472656 119.257812 81.492188 119.257812 Z M 81.492188 119.257812 " fill-opacity="1" fill-rule="evenodd"/></g><path fill="#013d43" d="M 182.410156 185.796875 L 100.554688 185.796875 C 99.574219 185.796875 98.773438 184.996094 98.773438 184.015625 L 98.773438 98.859375 C 98.773438 97.882812 99.574219 97.078125 100.554688 97.078125 L 182.410156 97.078125 C 183.390625 97.078125 184.191406 97.882812 184.191406 98.859375 L 184.191406 184.015625 C 184.191406 184.996094 183.390625 185.796875 182.410156 185.796875 Z M 102.335938 182.234375 L 180.628906 182.234375 L 180.628906 100.640625 L 102.335938 100.640625 Z M 102.335938 182.234375 " fill-opacity="1" fill-rule="evenodd"/><path fill="#013d43" d="M 215.636719 143.21875 L 67.242188 143.21875 C 64.925781 143.21875 64.925781 139.65625 67.242188 139.65625 L 215.636719 139.65625 C 218.039062 139.65625 218.039062 143.21875 215.636719 143.21875 Z M 215.636719 143.21875 " fill-opacity="1" fill-rule="evenodd"/></svg>